# xmcd
#
# Track frame offsets:
#	150
#	14751
#	30146
#	48988
#	68339
#	86043
#	102353
#	120961
#	138308
#	155396
#	171155
#	188898
#
# Disc length: 2777 seconds
#
# Revision: 2
# Processed by: cddbd v1.5.2PL0 Copyright (c) Steve Scherf et al.
# Submitted via: audiograbber 1.83.01
#
DISCID=8e0ad70c
DTITLE=The Band Perry - Pioneer
DYEAR=2013
DGENRE=Country Rock
TTITLE0=Better Dig Two
TTITLE1=DONE.
TTITLE2=Don't Let Me Be Lonely
TTITLE3=Pioneer
TTITLE4=Forever Mine Nevermind
TTITLE5=Night Gone Wasted
TTITLE6=I Saw A Light
TTITLE7=Mother Like Mine
TTITLE8=Chainsaw
TTITLE9=I'm A Keeper
TTITLE10=Back To Me Without You
TTITLE11=End Of Time
EXTD=
EXTT0=
EXTT1=
EXTT2=
EXTT3=
EXTT4=
EXTT5=
EXTT6=
EXTT7=
EXTT8=
EXTT9=
EXTT10=
EXTT11=
PLAYORDER=
